<svg width="24" height="18" viewBox="0 0 24 18" fill="none" xmlns="http://www.w3.org/2000/svg">
<path d="M23.0799 3.15726V16.2895C23.0799 17.143 22.3887 17.8341 21.5352 17.8341H17.9295V9.07994L11.75 13.7157L5.57053 9.07994V17.8351H1.9648C1.76188 17.8351 1.56094 17.7951 1.37348 17.7174C1.18601 17.6397 1.01569 17.5259 0.872246 17.3823C0.728801 17.2388 0.615043 17.0684 0.537474 16.8809C0.459904 16.6934 0.420042 16.4924 0.420166 16.2895V3.15726C0.420166 1.24724 2.60022 0.156737 4.12786 1.30294L5.57053 2.38589L11.75 7.0198L17.9295 2.384L19.3722 1.30294C20.8989 0.157681 23.0799 1.24724 23.0799 3.15726Z" fill="white"/>
</svg>
